<mxfile host="app.diagrams.net" modified="2022-06-29T11:02:04.826Z" agent="5.0 (X11; Linux x86_64) AppleWebKit/537.36 (KHTML, like Gecko) Chrome/103.0.5060.53 Safari/537.36 Edg/103.0.1264.37" etag="J90mgNDVFm7uQjRWGIQ6" version="20.0.3" type="github">
  <diagram id="Kpz-nBdlQiS1kaE0A8DM" name="第 1 页">
    <mxGraphModel dx="504" dy="274" grid="1" gridSize="10" guides="1" tooltips="1" connect="1" arrows="1" fold="1" page="1" pageScale="1" pageWidth="827" pageHeight="1169" math="0" shadow="0">
      <root>
        <mxCell id="0" />
        <mxCell id="1" parent="0" />
        <mxCell id="pKHUw0NXEJuYXy8erbxU-1" value="C&lt;br&gt;o&lt;br&gt;n&lt;br&gt;v" style="rounded=0;whiteSpace=wrap;html=1;fillColor=#1ba1e2;fontColor=#ffffff;strokeColor=#006EAF;" vertex="1" parent="1">
          <mxGeometry x="90" y="140" width="30" height="120" as="geometry" />
        </mxCell>
        <mxCell id="pKHUw0NXEJuYXy8erbxU-2" value="&lt;font color=&quot;#ffffff&quot;&gt;RRDB&lt;/font&gt;" style="rounded=1;whiteSpace=wrap;html=1;fillColor=#f0a30a;strokeColor=#BD7000;fontColor=#000000;" vertex="1" parent="1">
          <mxGeometry x="160" y="180" width="90" height="40" as="geometry" />
        </mxCell>
        <mxCell id="pKHUw0NXEJuYXy8erbxU-3" value="&lt;font color=&quot;#ffffff&quot;&gt;RRDB&lt;/font&gt;" style="rounded=1;whiteSpace=wrap;html=1;fillColor=#f0a30a;strokeColor=#BD7000;fontColor=#000000;" vertex="1" parent="1">
          <mxGeometry x="280" y="180" width="90" height="40" as="geometry" />
        </mxCell>
        <mxCell id="pKHUw0NXEJuYXy8erbxU-4" value="&lt;font color=&quot;#ffffff&quot;&gt;RRDB&lt;/font&gt;" style="rounded=1;whiteSpace=wrap;html=1;fillColor=#f0a30a;strokeColor=#BD7000;fontColor=#000000;" vertex="1" parent="1">
          <mxGeometry x="520" y="180" width="90" height="40" as="geometry" />
        </mxCell>
        <mxCell id="pKHUw0NXEJuYXy8erbxU-25" value="" style="ellipse;whiteSpace=wrap;html=1;aspect=fixed;rounded=1;fontColor=#ffffff;fillColor=#647687;strokeColor=#314354;align=left;" vertex="1" parent="1">
          <mxGeometry x="400" y="195" width="10" height="10" as="geometry" />
        </mxCell>
        <mxCell id="pKHUw0NXEJuYXy8erbxU-27" value="" style="ellipse;whiteSpace=wrap;html=1;aspect=fixed;rounded=1;fontColor=#ffffff;fillColor=#647687;strokeColor=#314354;align=left;" vertex="1" parent="1">
          <mxGeometry x="440" y="195" width="10" height="10" as="geometry" />
        </mxCell>
        <mxCell id="pKHUw0NXEJuYXy8erbxU-28" value="" style="ellipse;whiteSpace=wrap;html=1;aspect=fixed;rounded=1;fontColor=#ffffff;fillColor=#647687;strokeColor=#314354;align=left;" vertex="1" parent="1">
          <mxGeometry x="420" y="195" width="10" height="10" as="geometry" />
        </mxCell>
      </root>
    </mxGraphModel>
  </diagram>
</mxfile>
